<svg xmlns="http://www.w3.org/2000/svg" xmlns:xlink="http://www.w3.org/1999/xlink" width="1500" zoomAndPan="magnify" viewBox="0 0 1125 1124.99995" height="1500" preserveAspectRatio="xMidYMid meet" version="1.0"><defs><g/><clipPath id="bc4c211612"><path d="M 983 488.847656 L 1035 488.847656 L 1035 513 L 983 513 Z M 983 488.847656 " clip-rule="nonzero"/></clipPath><clipPath id="30d3a71ca3"><path d="M 982.339844 515 L 1035.589844 515 L 1035.589844 635.097656 L 982.339844 635.097656 Z M 982.339844 515 " clip-rule="nonzero"/></clipPath></defs><rect x="-112.5" width="1350" fill="#ffffff" y="-112.499995" height="1349.99994" fill-opacity="1"/><rect x="-112.5" width="1350" fill="#ffffff" y="-112.499995" height="1349.99994" fill-opacity="1"/><g fill="#3d52a0" fill-opacity="1"><g transform="translate(482.169967, 634.499925)"><g><path d="M 71.503906 -146.742188 C 86.84375 -146.742188 100.28125 -143.632812 111.816406 -137.414062 C 123.355469 -131.195312 132.234375 -122.5625 138.453125 -111.507812 C 144.667969 -100.453125 147.777344 -87.878906 147.777344 -73.785156 C 147.777344 -59.828125 144.667969 -47.253906 138.453125 -36.0625 C 132.234375 -24.871094 123.355469 -16.0625 111.816406 -9.636719 C 100.28125 -3.210938 86.84375 0 71.503906 0 L 10.363281 0 L 10.363281 -146.742188 Z M 67.359375 -41.039062 C 77.722656 -41.039062 85.945312 -43.871094 92.023438 -49.535156 C 98.105469 -55.199219 101.144531 -63.285156 101.144531 -73.785156 C 101.144531 -84.285156 98.105469 -92.371094 92.023438 -98.035156 C 85.945312 -103.699219 77.722656 -106.53125 67.359375 -106.53125 L 56.375 -106.53125 L 56.375 -41.039062 Z M 67.359375 -41.039062 "/></g></g></g><g clip-path="url(#bc4c211612)"><path fill="#333333" d="M 985.707031 493.535156 L 986.53125 493.535156 L 997.4375 512.203125 L 1020.289062 512.203125 L 1031.195312 493.535156 L 1032.019531 493.535156 C 1033.3125 493.535156 1034.367188 492.480469 1034.367188 491.191406 C 1034.367188 489.898438 1033.3125 488.84375 1032.019531 488.84375 L 985.707031 488.84375 C 984.414062 488.84375 983.359375 489.898438 983.359375 491.191406 C 983.359375 492.476562 984.417969 493.535156 985.703125 493.535156 Z M 985.707031 493.535156 " fill-opacity="1" fill-rule="nonzero"/></g><g clip-path="url(#30d3a71ca3)"><path fill="#333333" d="M 1020.085938 515.671875 L 997.644531 515.671875 L 982.34375 606.871094 L 1008.867188 635.027344 L 1035.386719 606.871094 Z M 1020.085938 515.671875 " fill-opacity="1" fill-rule="nonzero"/></g><g fill="#333333" fill-opacity="1"><g transform="translate(625.806643, 634.499925)"><g><path d="M 186.742188 -146.742188 L 186.742188 0 L 140.9375 0 L 140.9375 -73.164062 L 118.347656 0 L 78.96875 0 L 56.375 -73.164062 L 56.375 0 L 10.363281 0 L 10.363281 -146.742188 L 66.738281 -146.742188 L 99.070312 -58.65625 L 130.574219 -146.742188 Z M 186.742188 -146.742188 "/></g></g></g><g fill="#3d52a0" fill-opacity="1"><g transform="translate(230.405146, 633.938013)"><g><path d="M 146.121094 -146.742188 L 146.121094 0 L 100.109375 0 L 100.109375 -57.203125 L 56.375 -57.203125 L 56.375 0 L 10.363281 0 L 10.363281 -146.742188 L 56.375 -146.742188 L 56.375 -93.890625 L 100.109375 -93.890625 L 100.109375 -146.742188 Z M 146.121094 -146.742188 "/></g></g></g><g fill="#333333" fill-opacity="1"><g transform="translate(375.284817, 633.938013)"><g><path d="M 56.375 -110.054688 L 56.375 -92.023438 L 101.972656 -92.023438 L 101.972656 -57.410156 L 56.375 -57.410156 L 56.375 -36.683594 L 108.191406 -36.683594 L 108.191406 0 L 10.363281 0 L 10.363281 -146.742188 L 108.191406 -146.742188 L 108.191406 -110.054688 Z M 56.375 -110.054688 "/></g></g></g><g fill="#333333" fill-opacity="1"><g transform="translate(83.512935, 633.938013)"><g><path d="M 99.070312 0 L 56.375 -63.628906 L 56.375 0 L 10.363281 0 L 10.363281 -146.742188 L 56.375 -146.742188 L 56.375 -84.976562 L 98.449219 -146.742188 L 150.472656 -146.742188 L 99.902344 -76.480469 L 153.789062 0 Z M 99.070312 0 "/></g></g></g><g fill="#3d52a0" fill-opacity="1"><g transform="translate(812.556747, 634.499925)"><g><path d="M 151.09375 0 L 105.082031 0 L 56.375 -73.785156 L 56.375 0 L 10.363281 0 L 10.363281 -146.742188 L 56.375 -146.742188 L 105.082031 -71.710938 L 105.082031 -146.742188 L 151.09375 -146.742188 Z M 151.09375 0 "/></g></g></g></svg>