<svg xmlns="http://www.w3.org/2000/svg" xmlns:xlink="http://www.w3.org/1999/xlink" width="2500" zoomAndPan="magnify" viewBox="0 0 1874.88 1124.99995" height="1500" preserveAspectRatio="xMidYMid meet" version="1.0"><defs><g/><clipPath id="f4166104e3"><path d="M 1750 420.972656 L 1849 420.972656 L 1849 467 L 1750 467 Z M 1750 420.972656 " clip-rule="nonzero"/></clipPath><clipPath id="31db8d7c1c"><path d="M 1748.128906 472 L 1850.121094 472 L 1850.121094 702.957031 L 1748.128906 702.957031 Z M 1748.128906 472 " clip-rule="nonzero"/></clipPath></defs><g fill="#3d52a0" fill-opacity="1"><g transform="translate(783.375756, 701.919108)"><g><path d="M 137.921875 -283.042969 C 167.507812 -283.042969 193.425781 -277.046875 215.679688 -265.054688 C 237.933594 -253.058594 255.058594 -236.402344 267.050781 -215.082031 C 279.046875 -193.757812 285.042969 -169.507812 285.042969 -142.320312 C 285.042969 -115.402344 279.046875 -91.148438 267.050781 -69.5625 C 255.058594 -47.972656 237.933594 -30.984375 215.679688 -18.589844 C 193.425781 -6.195312 167.507812 0 137.921875 0 L 19.988281 0 L 19.988281 -283.042969 Z M 129.929688 -79.15625 C 149.917969 -79.15625 165.773438 -84.621094 177.5 -95.546875 C 189.226562 -106.472656 195.09375 -122.066406 195.09375 -142.320312 C 195.09375 -162.578125 189.226562 -178.167969 177.5 -189.09375 C 165.773438 -200.023438 149.917969 -205.484375 129.929688 -205.484375 L 108.738281 -205.484375 L 108.738281 -79.15625 Z M 129.929688 -79.15625 "/></g></g></g><g clip-path="url(#f4166104e3)"><path fill="#333333" d="M 1754.597656 430.019531 L 1756.1875 430.019531 L 1777.152344 466.03125 L 1821.089844 466.03125 L 1842.054688 430.019531 L 1843.644531 430.019531 C 1846.125 430.019531 1848.15625 427.984375 1848.15625 425.496094 C 1848.15625 423.007812 1846.125 420.96875 1843.644531 420.96875 L 1754.597656 420.96875 C 1752.113281 420.96875 1750.085938 423.007812 1750.085938 425.496094 C 1750.085938 427.976562 1752.121094 430.019531 1754.59375 430.019531 Z M 1754.597656 430.019531 " fill-opacity="1" fill-rule="nonzero"/></g><g clip-path="url(#31db8d7c1c)"><path fill="#333333" d="M 1820.699219 472.71875 L 1777.550781 472.71875 L 1748.132812 648.644531 L 1799.125 702.957031 L 1850.121094 648.644531 Z M 1820.699219 472.71875 " fill-opacity="1" fill-rule="nonzero"/></g><g fill="#333333" fill-opacity="1"><g transform="translate(1060.429516, 701.919108)"><g><path d="M 360.199219 -283.042969 L 360.199219 0 L 271.847656 0 L 271.847656 -141.121094 L 228.273438 0 L 152.316406 0 L 108.738281 -141.121094 L 108.738281 0 L 19.988281 0 L 19.988281 -283.042969 L 128.730469 -283.042969 L 191.09375 -113.136719 L 251.859375 -283.042969 Z M 360.199219 -283.042969 "/></g></g></g><g fill="#3d52a0" fill-opacity="1"><g transform="translate(297.759084, 700.835193)"><g><path d="M 281.84375 -283.042969 L 281.84375 0 L 193.09375 0 L 193.09375 -110.339844 L 108.738281 -110.339844 L 108.738281 0 L 19.988281 0 L 19.988281 -283.042969 L 108.738281 -283.042969 L 108.738281 -181.097656 L 193.09375 -181.097656 L 193.09375 -283.042969 Z M 281.84375 -283.042969 "/></g></g></g><g fill="#333333" fill-opacity="1"><g transform="translate(577.210312, 700.835193)"><g><path d="M 108.738281 -212.28125 L 108.738281 -177.5 L 196.691406 -177.5 L 196.691406 -110.738281 L 108.738281 -110.738281 L 108.738281 -70.761719 L 208.683594 -70.761719 L 208.683594 0 L 19.988281 0 L 19.988281 -283.042969 L 208.683594 -283.042969 L 208.683594 -212.28125 Z M 108.738281 -212.28125 "/></g></g></g><g fill="#333333" fill-opacity="1"><g transform="translate(14.425973, 700.835193)"><g><path d="M 191.09375 0 L 108.738281 -122.730469 L 108.738281 0 L 19.988281 0 L 19.988281 -283.042969 L 108.738281 -283.042969 L 108.738281 -163.910156 L 189.894531 -283.042969 L 290.238281 -283.042969 L 192.691406 -147.519531 L 296.636719 0 Z M 191.09375 0 "/></g></g></g><g fill="#3d52a0" fill-opacity="1"><g transform="translate(1420.642342, 701.919108)"><g><path d="M 291.4375 0 L 202.6875 0 L 108.738281 -142.320312 L 108.738281 0 L 19.988281 0 L 19.988281 -283.042969 L 108.738281 -283.042969 L 202.6875 -138.324219 L 202.6875 -283.042969 L 291.4375 -283.042969 Z M 291.4375 0 "/></g></g></g></svg>